<?xml version="1.0" encoding="UTF-8"?>
<svg xmlns="http://www.w3.org/2000/svg" xmlns:xlink="http://www.w3.org/1999/xlink" width="3000" height="3000" viewBox="0 0 3000 3000">
<rect x="-300" y="-300" width="3600" height="3600" fill="rgb(100%, 100%, 100%)" fill-opacity="1"/>
<path fill-rule="nonzero" fill="rgb(83.201599%, 82.421875%, 82.03125%)" fill-opacity="1" d="M 2198.628906 2581.179688 L 2196.878906 2580.578125 C 2181.878906 2575.632812 2171.941406 2572.742188 2167.058594 2571.902344 C 2158.691406 2570.308594 2141.949219 2568.085938 2116.820312 2565.230469 C 2040.460938 2557.5 1960.488281 2551.269531 1876.898438 2546.542969 L 1797.050781 2542.214844 C 1755.488281 2540.210938 1713.910156 2538.59375 1672.308594 2537.367188 C 1589.101562 2534.921875 1505.859375 2533.988281 1422.589844 2534.574219 C 1254.570312 2536.039062 1089.75 2542.773438 928.132812 2554.78125 C 852.753906 2560.371094 801.804688 2565.566406 775.289062 2570.367188 C 759.464844 2573.335938 752.511719 2574.988281 754.417969 2575.320312 C 751.25 2579.273438 752.804688 2582.652344 759.074219 2585.445312 C 759.421875 2586.367188 768.109375 2587.234375 785.132812 2588.039062 C 808.28125 2592.636719 853.066406 2598.605469 919.496094 2605.949219 C 978.605469 2612.308594 1037.789062 2617.804688 1097.070312 2622.441406 C 1221.550781 2632.367188 1346.320312 2637.46875 1471.390625 2637.75 L 1533.878906 2637.496094 C 1575.539062 2637.0625 1617.171875 2636.097656 1658.789062 2634.605469 C 1750.75 2630.863281 1825.109375 2626.527344 1881.871094 2621.589844 C 1973.570312 2614.335938 2050.03125 2606.855469 2111.238281 2599.15625 C 2137.390625 2595.699219 2154.921875 2593.070312 2163.820312 2591.273438 C 2174.179688 2588.875 2185.78125 2585.511719 2198.628906 2581.179688 "/>
<path fill-rule="nonzero" fill="rgb(35.301208%, 35.301208%, 34.910583%)" fill-opacity="1" d="M 1513.039062 2511.121094 L 1453.648438 2516.378906 C 1373.320312 2523.417969 1299.878906 2530.28125 1233.308594 2536.980469 C 1200.601562 2540.3125 1171.339844 2543.5625 1145.511719 2546.722656 L 1110.210938 2551.382812 C 1088.679688 2554.4375 1072.320312 2557.363281 1061.121094 2560.164062 L 1049.050781 2564.242188 C 1042.03125 2567.507812 1046.980469 2570.730469 1063.898438 2573.90625 C 1113.648438 2582.238281 1228.410156 2587.921875 1408.179688 2590.957031 C 1492.230469 2592.089844 1565.601562 2592.199219 1628.300781 2591.292969 C 1660.769531 2590.859375 1691.070312 2590.207031 1719.21875 2589.328125 L 1759.351562 2587.851562 C 1784.859375 2586.757812 1807.289062 2585.457031 1826.628906 2583.941406 C 1865.921875 2580.910156 1889.148438 2577.089844 1896.328125 2572.488281 L 1897.550781 2568.90625 C 1895.808594 2566.421875 1889.539062 2563.769531 1878.738281 2560.949219 C 1856.320312 2555.277344 1820.730469 2549.121094 1771.96875 2542.476562 C 1696.769531 2532.4375 1610.460938 2521.984375 1513.039062 2511.121094 "/>
<path fill-rule="nonzero" fill="rgb(0%, 0%, 0%)" fill-opacity="1" d="M 1684.460938 1872.890625 L 1692.339844 1883.160156 C 1727.488281 1927.769531 1751.839844 1965 1765.398438 1994.859375 C 1778.21875 2021.476562 1786.851562 2060.394531 1791.308594 2111.609375 C 1854.660156 2153.746094 1894.390625 2194.203125 1910.488281 2232.976562 C 1920.460938 2251.597656 1927.5 2280.085938 1931.609375 2318.441406 C 1933.738281 2352.996094 1929.789062 2385.578125 1919.75 2416.1875 C 1909.671875 2446.765625 1895.539062 2472.089844 1877.328125 2492.152344 C 1857.050781 2513.84375 1828.710938 2533.339844 1792.300781 2550.640625 L 1684 2542.347656 C 1660.628906 2556.835938 1644.21875 2563.40625 1634.761719 2562.0625 C 1623.238281 2562.238281 1610.128906 2557.925781 1595.410156 2549.117188 L 1485.070312 2549.785156 L 1485.570312 1881.609375 L 1684.460938 1872.890625 "/>
<path fill-rule="nonzero" fill="rgb(0%, 0%, 0%)" fill-opacity="1" d="M 1287.078125 1872.890625 L 1279.199219 1883.160156 C 1244.050781 1927.769531 1219.699219 1965 1206.140625 1994.859375 C 1193.320312 2021.476562 1184.691406 2060.394531 1180.230469 2111.609375 C 1116.878906 2153.746094 1077.148438 2194.203125 1061.050781 2232.976562 C 1051.078125 2251.597656 1044.039062 2280.085938 1039.929688 2318.441406 C 1037.800781 2352.996094 1041.761719 2385.578125 1051.800781 2416.1875 C 1061.871094 2446.765625 1076.011719 2472.089844 1094.210938 2492.152344 C 1114.488281 2513.84375 1142.839844 2533.339844 1179.238281 2550.640625 L 1287.550781 2542.347656 C 1310.910156 2556.835938 1327.328125 2563.40625 1336.789062 2562.0625 C 1348.300781 2562.238281 1361.410156 2557.925781 1376.128906 2549.117188 L 1486.460938 2549.785156 L 1485.96875 1881.609375 L 1287.078125 1872.890625 "/>
<path fill-rule="nonzero" fill="rgb(99.609375%, 99.609375%, 99.609375%)" fill-opacity="1" d="M 1485.25 2113.632812 L 1487.808594 2113.675781 C 1502.410156 2113.554688 1521.359375 2119.996094 1544.671875 2132.992188 C 1558.101562 2140.675781 1570.410156 2151.378906 1581.589844 2165.101562 C 1585.460938 2170.21875 1588.871094 2175.847656 1591.839844 2181.992188 L 1595.941406 2191.597656 C 1598.460938 2198.257812 1600.519531 2205.4375 1602.140625 2213.128906 C 1605.371094 2227.207031 1606.789062 2245.957031 1606.410156 2269.386719 C 1606.21875 2280.738281 1604.660156 2299.300781 1601.730469 2325.078125 L 1596.5 2362.523438 C 1587.640625 2416.960938 1582.871094 2446.914062 1582.171875 2452.378906 C 1579.550781 2472.226562 1578.058594 2485.894531 1577.710938 2493.378906 C 1577.089844 2508.039062 1577.921875 2518.472656 1580.191406 2524.675781 C 1581.308594 2528.578125 1582.78125 2532.222656 1584.578125 2535.609375 C 1589.699219 2543.625 1593.179688 2548.125 1595.019531 2549.109375 L 1485.769531 2549.292969 L 1485.25 2113.632812 "/>
<path fill-rule="nonzero" fill="rgb(99.609375%, 99.609375%, 99.609375%)" fill-opacity="1" d="M 1486.289062 2113.632812 L 1483.730469 2113.675781 C 1469.128906 2113.554688 1450.179688 2119.996094 1426.871094 2132.992188 C 1413.441406 2140.675781 1401.128906 2151.378906 1389.941406 2165.101562 C 1386.078125 2170.21875 1382.671875 2175.847656 1379.699219 2181.992188 L 1375.601562 2191.597656 C 1373.078125 2198.257812 1371.019531 2205.4375 1369.398438 2213.128906 C 1366.171875 2227.207031 1364.75 2245.957031 1365.128906 2269.386719 C 1365.320312 2280.738281 1366.878906 2299.300781 1369.808594 2325.078125 L 1375.039062 2362.523438 C 1383.898438 2416.960938 1388.671875 2446.914062 1389.371094 2452.378906 C 1391.988281 2472.226562 1393.480469 2485.894531 1393.839844 2493.378906 C 1394.449219 2508.039062 1393.628906 2518.472656 1391.351562 2524.675781 C 1390.230469 2528.578125 1388.769531 2532.222656 1386.960938 2535.609375 C 1381.839844 2543.625 1378.359375 2548.125 1376.519531 2549.109375 L 1485.769531 2549.292969 L 1486.289062 2113.632812 "/>
<path fill-rule="nonzero" fill="rgb(21.972656%, 22.363281%, 21.972656%)" fill-opacity="1" d="M 1763.800781 1991.429688 C 1740.519531 2000.585938 1728.03125 2006.765625 1726.320312 2009.972656 C 1713.398438 2018.382812 1700.148438 2033.453125 1686.589844 2055.179688 C 1673 2078.628906 1660.21875 2107.5625 1648.230469 2141.972656 C 1632.078125 2188.851562 1619.710938 2232.515625 1611.121094 2272.964844 C 1607.621094 2288.09375 1603.601562 2310.441406 1599.058594 2340.007812 L 1585.898438 2440.519531 C 1582.128906 2468.703125 1581.308594 2486.707031 1583.460938 2494.535156 C 1584.789062 2507.542969 1596.289062 2519.730469 1617.960938 2531.09375 C 1634.449219 2539.761719 1648.101562 2544.09375 1658.910156 2544.09375 C 1663.859375 2544.09375 1668.21875 2543.183594 1671.980469 2541.363281 C 1687.199219 2535.21875 1703.558594 2514.097656 1721.070312 2478.007812 C 1746.410156 2424.460938 1763.140625 2380.589844 1771.25 2346.386719 C 1778.078125 2315.90625 1782.269531 2288.761719 1783.820312 2264.953125 C 1786.488281 2238.679688 1788.890625 2186.816406 1791.039062 2109.363281 L 1791.078125 2109.058594 C 1786.558594 2059.097656 1778 2021.035156 1765.398438 1994.859375 C 1764.878906 1993.730469 1764.351562 1992.589844 1763.808594 1991.429688 Z M 1763.800781 1991.429688 "/>
<path fill-rule="nonzero" fill="rgb(21.972656%, 22.363281%, 21.972656%)" fill-opacity="1" d="M 1207.730469 1991.429688 C 1207.191406 1992.589844 1206.660156 1993.730469 1206.140625 1994.859375 C 1193.539062 2021.03125 1184.980469 2059.085938 1180.460938 2109.035156 L 1180.511719 2109.363281 C 1182.640625 2186.816406 1185.050781 2238.679688 1187.710938 2264.953125 C 1189.269531 2288.761719 1193.460938 2315.90625 1200.289062 2346.386719 C 1208.398438 2380.589844 1225.128906 2424.460938 1250.46875 2478.007812 C 1267.980469 2514.097656 1284.339844 2535.21875 1299.558594 2541.363281 C 1303.320312 2543.183594 1307.679688 2544.09375 1312.628906 2544.09375 C 1323.441406 2544.09375 1337.089844 2539.761719 1353.578125 2531.09375 C 1375.25 2519.730469 1386.75 2507.542969 1388.078125 2494.535156 C 1390.230469 2486.707031 1389.410156 2468.703125 1385.640625 2440.519531 L 1372.480469 2340.007812 C 1367.941406 2310.441406 1363.921875 2288.09375 1360.421875 2272.964844 C 1351.828125 2232.515625 1339.460938 2188.851562 1323.308594 2141.972656 C 1311.320312 2107.5625 1298.539062 2078.628906 1284.949219 2055.179688 C 1271.390625 2033.453125 1258.140625 2018.382812 1245.21875 2009.972656 C 1243.511719 2006.765625 1231.019531 2000.585938 1207.730469 1991.429688 Z M 1207.730469 1991.429688 "/>
<path fill-rule="nonzero" fill="rgb(21.972656%, 22.363281%, 21.972656%)" fill-opacity="1" d="M 1797.160156 2115.546875 C 1796.578125 2161.945312 1795.320312 2199.785156 1793.371094 2229.074219 C 1792.230469 2247.921875 1788.980469 2281.527344 1783.621094 2329.878906 C 1782.230469 2348.191406 1781.660156 2358.691406 1781.910156 2361.378906 C 1781.128906 2380.027344 1784.691406 2395 1792.601562 2406.292969 C 1798.171875 2415.449219 1811.429688 2421.546875 1832.359375 2424.578125 C 1838.691406 2425.28125 1844.628906 2425.632812 1850.191406 2425.632812 C 1865.070312 2425.632812 1877.230469 2423.125 1886.679688 2418.105469 C 1898.121094 2412.765625 1908.660156 2403.519531 1918.308594 2390.367188 C 1921.878906 2385.578125 1925.660156 2379.886719 1929.640625 2373.292969 L 1929.648438 2373.292969 C 1932.121094 2355.597656 1932.769531 2337.3125 1931.609375 2318.441406 C 1927.5 2280.085938 1920.460938 2251.597656 1910.488281 2232.976562 C 1894.890625 2195.410156 1857.109375 2156.269531 1797.171875 2115.546875 Z M 1797.160156 2115.546875 "/>
<path fill-rule="nonzero" fill="rgb(21.972656%, 22.363281%, 21.972656%)" fill-opacity="1" d="M 1174.378906 2115.542969 C 1114.429688 2156.265625 1076.648438 2195.410156 1061.050781 2232.976562 C 1051.078125 2251.597656 1044.039062 2280.085938 1039.929688 2318.441406 C 1038.769531 2337.308594 1039.421875 2355.585938 1041.878906 2373.277344 C 1045.878906 2379.875 1049.660156 2385.574219 1053.230469 2390.367188 C 1062.878906 2403.519531 1073.421875 2412.765625 1084.859375 2418.105469 C 1094.308594 2423.125 1106.480469 2425.632812 1121.339844 2425.632812 C 1126.910156 2425.632812 1132.851562 2425.28125 1139.179688 2424.578125 C 1160.121094 2421.546875 1173.371094 2415.449219 1178.941406 2406.292969 C 1186.851562 2395 1190.410156 2380.027344 1189.628906 2361.378906 C 1189.878906 2358.691406 1189.320312 2348.191406 1187.929688 2329.878906 C 1182.558594 2281.527344 1179.308594 2247.921875 1178.179688 2229.074219 C 1176.21875 2199.785156 1174.960938 2161.941406 1174.378906 2115.542969 Z M 1174.378906 2115.542969 "/>
<path fill-rule="nonzero" fill="rgb(99.609375%, 99.609375%, 99.609375%)" fill-opacity="1" d="M 1790.328125 2229.519531 L 1790.210938 2229.839844 C 1789.140625 2233.191406 1787.898438 2239.054688 1786.480469 2247.4375 C 1780.609375 2284.6875 1775.78125 2314.242188 1772 2336.101562 C 1769.339844 2351.089844 1765.800781 2366.441406 1761.390625 2382.15625 C 1756.910156 2397.503906 1751.941406 2411.714844 1746.488281 2424.785156 C 1743.148438 2433.160156 1739.550781 2441.757812 1735.679688 2450.570312 L 1715.480469 2495.359375 L 1709.941406 2509.078125 C 1728.539062 2482.210938 1744.46875 2452.554688 1757.75 2420.109375 C 1768.339844 2393.085938 1776.328125 2363.460938 1781.738281 2331.238281 C 1784.320312 2318.207031 1786.75 2298.425781 1789.019531 2271.886719 C 1790.980469 2246.457031 1791.410156 2232.335938 1790.328125 2229.519531 "/>
<path fill-rule="nonzero" fill="rgb(99.609375%, 99.609375%, 99.609375%)" fill-opacity="1" d="M 1181.210938 2229.519531 L 1181.328125 2229.839844 C 1182.390625 2233.191406 1183.640625 2239.054688 1185.058594 2247.4375 C 1190.929688 2284.6875 1195.761719 2314.242188 1199.539062 2336.101562 C 1202.210938 2351.089844 1205.738281 2366.441406 1210.148438 2382.15625 C 1214.640625 2397.503906 1219.601562 2411.714844 1225.058594 2424.785156 C 1228.390625 2433.160156 1231.988281 2441.757812 1235.859375 2450.570312 L 1256.058594 2495.359375 L 1261.601562 2509.078125 C 1243 2482.210938 1227.070312 2452.554688 1213.789062 2420.109375 C 1203.210938 2393.085938 1195.210938 2363.460938 1189.800781 2331.238281 C 1187.21875 2318.207031 1184.789062 2298.425781 1182.53125 2271.886719 C 1180.570312 2246.457031 1180.128906 2232.335938 1181.210938 2229.519531 "/>
<path fill-rule="nonzero" fill="rgb(99.609375%, 99.609375%, 99.609375%)" fill-opacity="1" d="M 1819.339844 2447.382812 C 1819.339844 2447.386719 1819.339844 2447.386719 1819.351562 2447.390625 C 1819.359375 2447.390625 1819.359375 2447.390625 1819.371094 2447.394531 L 1819.398438 2447.394531 L 1819.410156 2447.398438 L 1819.488281 2447.398438 C 1819.5 2447.398438 1819.519531 2447.398438 1819.570312 2447.398438 L 1819.609375 2447.398438 L 1819.621094 2447.402344 C 1819.628906 2447.402344 1819.628906 2447.402344 1819.640625 2447.402344 C 1819.640625 2447.402344 1819.640625 2447.40625 1819.640625 2447.410156 L 1819.640625 2447.414062 L 1819.621094 2447.410156 L 1819.601562 2447.410156 C 1819.539062 2447.40625 1819.460938 2447.394531 1819.339844 2447.382812 "/>
<path fill-rule="nonzero" fill="rgb(99.609375%, 99.609375%, 99.609375%)" fill-opacity="1" d="M 1152.199219 2447.382812 C 1152.199219 2447.386719 1152.191406 2447.386719 1152.191406 2447.390625 C 1152.179688 2447.390625 1152.179688 2447.390625 1152.171875 2447.394531 L 1152.140625 2447.394531 L 1152.128906 2447.398438 L 1152.050781 2447.398438 C 1152.039062 2447.398438 1152.019531 2447.398438 1151.96875 2447.398438 L 1151.929688 2447.398438 L 1151.921875 2447.402344 C 1151.910156 2447.402344 1151.910156 2447.402344 1151.910156 2447.402344 C 1151.898438 2447.402344 1151.890625 2447.40625 1151.890625 2447.410156 L 1151.898438 2447.414062 L 1151.921875 2447.410156 L 1151.941406 2447.410156 C 1152 2447.40625 1152.078125 2447.394531 1152.199219 2447.382812 "/>
<path fill-rule="nonzero" fill="rgb(0%, 0%, 0%)" fill-opacity="1" d="M 1677.039062 1176.109375 L 1674.96875 1151.289062 C 1663.128906 1044.78125 1668.929688 948.988281 1692.390625 863.921875 C 1698.339844 835.320312 1718.089844 786.890625 1751.640625 718.628906 C 1772.230469 679.839844 1795.628906 643.359375 1821.859375 609.191406 C 1861.441406 557.800781 1904.820312 516.800781 1951.980469 486.199219 C 1959.460938 480.039062 1983.46875 466.460938 2024.019531 445.449219 C 2048.371094 432.929688 2090.199219 415.96875 2149.519531 394.578125 L 2174.980469 385.519531 C 2181.539062 413.710938 2186.25 444.320312 2189.109375 477.320312 C 2193.578125 552.558594 2178.320312 638.261719 2143.320312 734.429688 C 2114.949219 816.210938 2072.960938 895.300781 2017.351562 971.679688 C 1954.039062 1054.109375 1861.75 1144.75 1740.46875 1243.578125 L 1677.039062 1176.109375 "/>
<path fill-rule="nonzero" fill="rgb(99.609375%, 99.609375%, 99.609375%)" fill-opacity="1" d="M 1728.058594 1165.171875 L 1729.371094 1147.21875 C 1734.019531 1069.421875 1743.441406 1003.601562 1757.628906 949.75 C 1770.289062 901.308594 1789.589844 854.589844 1815.539062 809.578125 C 1822.058594 798.460938 1829.019531 787.589844 1836.441406 776.949219 L 1847.910156 761.21875 C 1863.71875 740.570312 1881.238281 721.078125 1900.46875 702.761719 C 1933.988281 670.621094 1981.75 632.511719 2043.769531 588.429688 C 2039.179688 637.390625 2031.878906 675.878906 2021.878906 703.890625 C 2009.53125 740.898438 1990.761719 782.371094 1965.578125 828.289062 C 1947.058594 862.191406 1928.578125 893.261719 1910.140625 921.5 C 1901.859375 935.28125 1875.890625 971.808594 1832.25 1031.078125 L 1812.398438 1060.871094 C 1793.210938 1091.738281 1771.21875 1132.238281 1746.449219 1182.371094 L 1728.058594 1165.171875 "/>
<path fill-rule="nonzero" fill="rgb(84.375%, 84.375%, 83.984375%)" fill-opacity="1" d="M 1815.859375 808.5 L 1818.371094 815.570312 C 1829.03125 846.628906 1839.378906 870.578125 1849.410156 887.429688 C 1858.140625 902.738281 1873.839844 921.121094 1896.511719 942.589844 C 1948.640625 862.679688 1984.960938 797.808594 2005.46875 747.980469 C 2027.75 697.300781 2040.609375 643.75 2044.058594 587.328125 C 1976.398438 635.429688 1926.199219 675.890625 1893.460938 708.71875 C 1863.101562 736.390625 1837.230469 769.648438 1815.859375 808.5 "/>
<path fill-rule="nonzero" fill="rgb(0%, 0%, 0%)" fill-opacity="1" d="M 1270.820312 1190.839844 L 1273.808594 1166.121094 C 1289.628906 1060.128906 1287.410156 964.191406 1267.148438 878.308594 C 1262.269531 849.488281 1244.339844 800.359375 1213.359375 730.898438 C 1194.25 691.359375 1172.21875 654.03125 1147.289062 618.910156 C 1109.660156 566.070312 1067.851562 523.480469 1021.859375 491.140625 C 1014.621094 484.699219 991.128906 470.230469 951.398438 447.71875 C 927.53125 434.300781 886.359375 415.789062 827.882812 392.191406 L 802.78125 382.191406 C 795.171875 410.121094 789.320312 440.519531 785.230469 473.398438 C 777.945312 548.410156 789.992188 634.621094 821.367188 732.039062 C 846.667969 814.820312 885.671875 895.421875 938.378906 973.828125 C 998.566406 1058.570312 1087.410156 1152.601562 1204.910156 1255.898438 L 1270.820312 1190.839844 "/>
<path fill-rule="nonzero" fill="rgb(99.609375%, 99.609375%, 99.609375%)" fill-opacity="1" d="M 1220.230469 1178 L 1219.601562 1160.019531 C 1217.859375 1082.101562 1210.910156 1015.96875 1198.738281 961.628906 C 1187.898438 912.75 1170.359375 865.339844 1146.109375 819.390625 C 1140.019531 808.039062 1133.460938 796.910156 1126.449219 786.011719 L 1115.578125 769.859375 C 1100.550781 748.621094 1083.769531 728.5 1065.238281 709.46875 C 1032.941406 676.101562 986.640625 636.230469 926.316406 589.859375 C 929.066406 638.960938 934.921875 677.691406 943.878906 706.058594 C 954.832031 743.511719 972.03125 785.640625 995.476562 832.480469 C 1012.71875 867.050781 1030.03125 898.78125 1047.390625 927.691406 C 1055.160156 941.78125 1079.730469 979.25 1121.128906 1040.109375 L 1139.859375 1070.621094 C 1157.878906 1102.191406 1178.328125 1143.480469 1201.21875 1194.511719 L 1220.230469 1178 "/>
<path fill-rule="nonzero" fill="rgb(84.375%, 84.375%, 83.984375%)" fill-opacity="1" d="M 1145.839844 818.300781 L 1143.058594 825.269531 C 1131.25 855.910156 1120.011719 879.460938 1109.359375 895.921875 C 1100.058594 910.890625 1083.679688 928.679688 1060.230469 949.28125 C 1011.128906 867.480469 977.257812 801.300781 958.625 750.738281 C 938.253906 699.25 927.398438 645.261719 926.066406 588.75 C 991.878906 639.351562 1040.53125 681.660156 1072.019531 715.691406 C 1101.328125 744.480469 1125.929688 778.679688 1145.839844 818.300781 "/>
<path fill-rule="nonzero" fill="rgb(0%, 0%, 0%)" fill-opacity="1" d="M 1488.789062 928.25 L 1492.648438 940.648438 C 1511.710938 1006.269531 1534.101562 1049.871094 1559.808594 1071.441406 C 1569.050781 1080.480469 1584.039062 1090.378906 1604.769531 1101.148438 L 1727.660156 1150.558594 C 1744.96875 1158.078125 1761.839844 1167.03125 1778.269531 1177.410156 C 1816.089844 1200.21875 1847.960938 1234.328125 1873.878906 1279.75 C 1890.199219 1311.660156 1902.511719 1345.78125 1910.808594 1382.128906 C 1924.039062 1437.839844 1929.761719 1495.03125 1927.949219 1553.710938 C 1948.570312 1599.230469 1960.789062 1637.03125 1964.589844 1667.121094 C 1967.890625 1715.28125 1959.179688 1754.988281 1938.449219 1786.238281 C 1867.300781 1906.578125 1705.878906 1967.179688 1454.191406 1968.019531 C 1216.589844 1955.769531 1067.640625 1882.949219 1007.328125 1749.539062 C 996.976562 1725.140625 995.476562 1690.761719 1002.828125 1646.398438 C 1006.488281 1623.820312 1015.988281 1592.679688 1031.328125 1552.96875 C 1035.179688 1480.660156 1042.089844 1421.710938 1052.089844 1376.148438 C 1061.539062 1335.109375 1075.421875 1298.671875 1093.738281 1266.851562 C 1111.671875 1234.730469 1135.019531 1207.949219 1163.789062 1186.53125 C 1175.441406 1178.070312 1188.230469 1170.660156 1202.160156 1164.308594 C 1257.46875 1142.921875 1290.328125 1128.839844 1300.71875 1122.078125 C 1311.980469 1117.210938 1327.25 1104.671875 1346.511719 1084.449219 C 1395.691406 1024.171875 1404.601562 971.199219 1373.261719 925.53125 C 1408.941406 935.03125 1431.101562 946.878906 1439.75 961.070312 C 1449.320312 973.191406 1453.019531 1000.019531 1450.851562 1041.570312 C 1474.390625 985.539062 1487.039062 947.769531 1488.789062 928.25 "/>
<path fill-rule="nonzero" fill="rgb(99.609375%, 99.609375%, 99.609375%)" fill-opacity="1" d="M 1229.601562 1929.988281 L 1231.289062 1913.101562 C 1239.269531 1822.449219 1259.609375 1762.558594 1292.320312 1733.429688 C 1342.558594 1685.078125 1406.460938 1662.210938 1484.039062 1664.828125 C 1522.921875 1666.769531 1560.039062 1675.171875 1595.390625 1690.03125 C 1629.460938 1705.078125 1655.398438 1722.359375 1673.199219 1741.859375 C 1708.699219 1777.289062 1727.789062 1841.269531 1730.46875 1933.800781 C 1650.578125 1958.53125 1553.390625 1971.640625 1438.910156 1973.128906 C 1376.820312 1973.53125 1307.058594 1959.148438 1229.601562 1929.988281 "/>
<path fill-rule="nonzero" fill="rgb(99.609375%, 99.609375%, 99.609375%)" fill-opacity="1" d="M 1868.339844 1574.390625 L 1867.191406 1592.25 C 1861.738281 1628.25 1845.808594 1657.03125 1819.378906 1678.621094 C 1792.769531 1700.179688 1761.441406 1708.929688 1725.378906 1704.851562 C 1690.96875 1699.148438 1663.441406 1682.480469 1642.808594 1654.839844 C 1636.199219 1645.910156 1630.75 1636.171875 1626.480469 1625.640625 L 1621.078125 1609.390625 C 1618.121094 1598.210938 1616.621094 1586.539062 1616.578125 1574.390625 C 1617.480469 1537.089844 1629.769531 1506.050781 1653.449219 1481.289062 C 1677.128906 1456.519531 1706.800781 1443.660156 1742.460938 1442.71875 C 1778.121094 1443.660156 1807.789062 1456.519531 1831.46875 1481.289062 C 1855.140625 1506.050781 1867.429688 1537.089844 1868.339844 1574.390625 "/>
<path fill-rule="nonzero" fill="rgb(0%, 0%, 0%)" fill-opacity="1" d="M 1833.929688 1575.890625 L 1833.101562 1588.828125 C 1829.160156 1614.898438 1817.609375 1635.761719 1798.460938 1651.390625 C 1779.179688 1667.011719 1756.46875 1673.339844 1730.339844 1670.390625 C 1705.410156 1666.269531 1685.46875 1654.191406 1670.519531 1634.171875 C 1665.71875 1627.691406 1661.78125 1620.640625 1658.679688 1613.011719 L 1654.769531 1601.238281 C 1652.621094 1593.140625 1651.53125 1584.691406 1651.511719 1575.890625 C 1652.160156 1548.871094 1661.070312 1526.390625 1678.21875 1508.441406 C 1695.378906 1490.5 1716.878906 1481.191406 1742.71875 1480.511719 C 1768.558594 1481.191406 1790.058594 1490.5 1807.21875 1508.441406 C 1824.378906 1526.390625 1833.28125 1548.871094 1833.929688 1575.890625 "/>
<path fill-rule="nonzero" fill="rgb(99.609375%, 99.609375%, 99.609375%)" fill-opacity="1" d="M 1810.03125 1533.421875 L 1809.730469 1537.46875 C 1808.339844 1545.628906 1804.25 1552.160156 1797.46875 1557.050781 C 1790.640625 1561.929688 1782.589844 1563.910156 1773.339844 1562.988281 C 1764.511719 1561.699219 1757.449219 1557.921875 1752.148438 1551.660156 C 1750.460938 1549.628906 1749.058594 1547.429688 1747.960938 1545.039062 L 1746.578125 1541.359375 C 1745.820312 1538.820312 1745.429688 1536.179688 1745.421875 1533.421875 C 1745.660156 1524.96875 1748.808594 1517.941406 1754.878906 1512.320312 C 1760.960938 1506.710938 1768.570312 1503.800781 1777.730469 1503.589844 C 1786.878906 1503.800781 1794.488281 1506.710938 1800.570312 1512.320312 C 1806.640625 1517.941406 1809.800781 1524.96875 1810.03125 1533.421875 "/>
<path fill-rule="nonzero" fill="rgb(99.609375%, 99.609375%, 99.609375%)" fill-opacity="1" d="M 1340.148438 1573.230469 L 1339 1591.089844 C 1333.558594 1627.089844 1317.621094 1655.878906 1291.191406 1677.460938 C 1264.578125 1699.019531 1233.25 1707.769531 1197.191406 1703.691406 C 1162.78125 1698 1135.261719 1681.320312 1114.628906 1653.679688 C 1108.019531 1644.75 1102.570312 1635.019531 1098.289062 1624.480469 L 1092.890625 1608.230469 C 1089.929688 1597.050781 1088.429688 1585.378906 1088.398438 1573.230469 C 1089.300781 1535.929688 1101.589844 1504.890625 1125.269531 1480.121094 C 1148.941406 1455.359375 1178.609375 1442.5 1214.269531 1441.558594 C 1249.929688 1442.5 1279.601562 1455.359375 1303.28125 1480.121094 C 1326.960938 1504.890625 1339.25 1535.929688 1340.148438 1573.230469 "/>
<path fill-rule="nonzero" fill="rgb(0%, 0%, 0%)" fill-opacity="1" d="M 1305.75 1574.730469 L 1304.921875 1587.671875 C 1300.96875 1613.75 1289.421875 1634.601562 1270.269531 1650.230469 C 1250.988281 1665.851562 1228.289062 1672.191406 1202.160156 1669.230469 C 1177.21875 1665.109375 1157.28125 1653.03125 1142.328125 1633.011719 C 1137.539062 1626.539062 1133.589844 1619.480469 1130.488281 1611.851562 L 1126.578125 1600.078125 C 1124.429688 1591.980469 1123.351562 1583.539062 1123.320312 1574.730469 C 1123.980469 1547.710938 1132.878906 1525.230469 1150.039062 1507.289062 C 1167.191406 1489.351562 1188.691406 1480.039062 1214.539062 1479.359375 C 1240.378906 1480.039062 1261.878906 1489.351562 1279.039062 1507.289062 C 1296.191406 1525.230469 1305.101562 1547.710938 1305.75 1574.730469 "/>
<path fill-rule="nonzero" fill="rgb(99.609375%, 99.609375%, 99.609375%)" fill-opacity="1" d="M 1281.839844 1532.269531 L 1281.550781 1536.320312 C 1280.148438 1544.46875 1276.058594 1551 1269.28125 1555.890625 C 1262.449219 1560.769531 1254.410156 1562.761719 1245.160156 1561.828125 C 1236.320312 1560.539062 1229.261719 1556.769531 1223.96875 1550.5 C 1222.269531 1548.46875 1220.878906 1546.269531 1219.78125 1543.878906 L 1218.390625 1540.199219 C 1217.628906 1537.660156 1217.25 1535.019531 1217.238281 1532.269531 C 1217.46875 1523.808594 1220.621094 1516.78125 1226.699219 1511.160156 C 1232.769531 1505.550781 1240.390625 1502.640625 1249.539062 1502.429688 C 1258.691406 1502.640625 1266.308594 1505.550781 1272.378906 1511.160156 C 1278.460938 1516.78125 1281.609375 1523.808594 1281.839844 1532.269531 "/>
<path fill-rule="nonzero" fill="rgb(99.609375%, 73.242188%, 73.631287%)" fill-opacity="1" d="M 1441.480469 1701.589844 L 1441.628906 1701.488281 C 1443.980469 1699.789062 1447.78125 1698.660156 1453.019531 1698.121094 C 1461.148438 1697.128906 1470 1696.710938 1479.578125 1696.859375 C 1503.601562 1697.730469 1517.390625 1699.789062 1520.949219 1703.039062 C 1524.058594 1705.71875 1522.390625 1711.140625 1515.96875 1719.300781 C 1509.058594 1728.21875 1501.371094 1735.609375 1492.910156 1741.488281 C 1488.371094 1744.691406 1484.050781 1746.261719 1479.941406 1746.191406 C 1476.851562 1746.058594 1472.679688 1743.96875 1467.441406 1739.910156 C 1460.019531 1734.121094 1453.179688 1726.871094 1446.910156 1718.160156 C 1441.320312 1710.371094 1439.511719 1704.839844 1441.480469 1701.589844 "/>
<path fill-rule="nonzero" fill="rgb(0%, 0%, 0%)" fill-opacity="1" d="M 1557.859375 1798.300781 L 1557.148438 1801.5 C 1554.75 1813.390625 1551.429688 1822.160156 1547.199219 1827.808594 C 1544.441406 1832.308594 1538.851562 1836.328125 1530.441406 1839.871094 C 1525.589844 1841.378906 1522.640625 1842.109375 1521.609375 1842.078125 C 1519.609375 1842.359375 1517.640625 1842.480469 1515.679688 1842.460938 C 1511.5 1842.390625 1507.769531 1841.640625 1504.5 1840.21875 C 1496.550781 1836.570312 1488.769531 1828.570312 1481.140625 1816.230469 C 1473.53125 1825.230469 1466.769531 1831.710938 1460.878906 1835.671875 C 1457.078125 1838.109375 1453.859375 1839.738281 1451.21875 1840.578125 C 1446.269531 1842.140625 1442.289062 1842.871094 1439.28125 1842.769531 C 1430.089844 1842.789062 1422.371094 1839.808594 1416.140625 1833.820312 C 1413.109375 1831.339844 1409.320312 1825.980469 1404.769531 1817.761719 C 1401.101562 1810.578125 1399.230469 1805.21875 1399.160156 1801.691406 C 1399.730469 1801.691406 1400.328125 1802.140625 1400.949219 1803.011719 C 1406.730469 1810.96875 1411.660156 1817.140625 1415.761719 1821.511719 C 1419.339844 1825.121094 1422.351562 1827.53125 1424.789062 1828.769531 C 1432.121094 1832.941406 1440.378906 1833.441406 1449.589844 1830.230469 C 1458.898438 1826.640625 1465.921875 1821 1470.628906 1813.328125 C 1472.308594 1811.160156 1473.851562 1806.960938 1475.261719 1800.710938 C 1475.671875 1800.171875 1476.210938 1793.460938 1476.859375 1780.570312 L 1477.5 1777.011719 C 1478.609375 1773.730469 1480.128906 1772.269531 1482.070312 1772.609375 C 1483.710938 1772.910156 1484.949219 1774.558594 1485.769531 1777.558594 C 1486.300781 1778.339844 1486.589844 1785.371094 1486.648438 1798.660156 L 1487.25 1803.851562 C 1487.429688 1806.570312 1488.878906 1810.300781 1491.570312 1815.03125 C 1493.480469 1818.5 1497.460938 1822.078125 1503.511719 1825.789062 C 1509.910156 1829.199219 1515.890625 1830.859375 1521.449219 1830.738281 C 1528.179688 1830.449219 1533.679688 1828.320312 1537.96875 1824.351562 C 1542.351562 1821.160156 1548.980469 1812.46875 1557.859375 1798.300781 "/>
</svg>
